<?xml version="1.0" encoding="us-ascii" standalone="no"?><svg xmlns="http://www.w3.org/2000/svg" xmlns:xlink="http://www.w3.org/1999/xlink" contentStyleType="text/css" height="730px" preserveAspectRatio="none" style="width:711px;height:730px;background:#FFFFFF;" version="1.1" viewBox="0 0 711 730" width="711px" zoomAndPan="magnify"><defs/><g><text fill="#000000" font-family="sans-serif" font-size="14" font-weight="bold" lengthAdjust="spacing" textLength="377" x="163" y="41.3125">Service Publication with External Contract Reference</text><rect fill="#ADD8E6" height="667.7637" style="stroke:none;stroke-width:0.5;" width="171" x="51" y="56.2656"/><text fill="#000000" font-family="sans-serif" font-size="13" font-weight="bold" lengthAdjust="spacing" textLength="165" x="54" y="68.834">API Provider (Delegatee)</text><rect fill="#90EE90" height="667.7637" style="stroke:none;stroke-width:0.5;" width="82" x="427" y="56.2656"/><text fill="#000000" font-family="sans-serif" font-size="13" font-weight="bold" lengthAdjust="spacing" textLength="62" x="437" y="68.834">Directory</text><rect fill="none" height="241.4395" style="stroke:#000000;stroke-width:1.5;" width="495.5" x="89.5" y="431.1016"/><line style="stroke:#181818;stroke-width:0.5;stroke-dasharray:5.0,5.0;" x1="136.5" x2="136.5" y1="107.0645" y2="689.541"/><line style="stroke:#181818;stroke-width:0.5;stroke-dasharray:5.0,5.0;" x1="468" x2="468" y1="107.0645" y2="689.541"/><rect fill="#E2E2F0" height="30.4883" rx="2.5" ry="2.5" style="stroke:#181818;stroke-width:0.5;" width="74" x="99.5" y="75.5762"/><text fill="#000000" font-family="sans-serif" font-size="14" lengthAdjust="spacing" textLength="60" x="106.5" y="96.1113">Manager</text><rect fill="#E2E2F0" height="30.4883" rx="2.5" ry="2.5" style="stroke:#181818;stroke-width:0.5;" width="74" x="99.5" y="688.541"/><text fill="#000000" font-family="sans-serif" font-size="14" lengthAdjust="spacing" textLength="60" x="106.5" y="709.0762">Manager</text><rect fill="#E2E2F0" height="30.4883" rx="2.5" ry="2.5" style="stroke:#181818;stroke-width:0.5;" width="74" x="431" y="75.5762"/><text fill="#000000" font-family="sans-serif" font-size="14" lengthAdjust="spacing" textLength="60" x="438" y="96.1113">Manager</text><rect fill="#E2E2F0" height="30.4883" rx="2.5" ry="2.5" style="stroke:#181818;stroke-width:0.5;" width="74" x="431" y="688.541"/><text fill="#000000" font-family="sans-serif" font-size="14" lengthAdjust="spacing" textLength="60" x="438" y="709.0762">Manager</text><path d="M42,122.0645 L42,177.0645 L231,177.0645 L231,132.0645 L221,122.0645 L42,122.0645 " fill="#FEFFDD" style="stroke:#181818;stroke-width:0.5;"/><path d="M221,122.0645 L221,132.0645 L231,132.0645 L221,122.0645 " fill="#FEFFDD" style="stroke:#181818;stroke-width:0.5;"/><text fill="#000000" font-family="sans-serif" font-size="13" lengthAdjust="spacing" textLength="168" x="48" y="139.6328">API Provider acts on behalf</text><text fill="#000000" font-family="sans-serif" font-size="13" lengthAdjust="spacing" textLength="161" x="48" y="154.9434">of Delegator organization</text><text fill="#000000" font-family="sans-serif" font-size="13" lengthAdjust="spacing" textLength="168" x="48" y="170.2539">based on external contract</text><line style="stroke:#181818;stroke-width:1.0;" x1="136.5" x2="178.5" y1="234.9277" y2="234.9277"/><line style="stroke:#181818;stroke-width:1.0;" x1="178.5" x2="178.5" y1="234.9277" y2="247.9277"/><line style="stroke:#181818;stroke-width:1.0;" x1="137.5" x2="178.5" y1="247.9277" y2="247.9277"/><polygon fill="#181818" points="147.5,243.9277,137.5,247.9277,147.5,251.9277,143.5,247.9277" style="stroke:#181818;stroke-width:1.0;"/><text fill="#000000" font-family="sans-serif" font-size="13" font-weight="bold" lengthAdjust="spacing" textLength="9" x="143.5" y="214.875">1</text><text fill="#000000" font-family="sans-serif" font-size="13" lengthAdjust="spacing" textLength="192" x="156.5" y="199.5645">Create ServicePublicationGrant</text><text fill="#000000" font-family="sans-serif" font-size="13" lengthAdjust="spacing" textLength="206" x="156.5" y="214.875">with external_contract_reference</text><text fill="#000000" font-family="sans-serif" font-size="13" lengthAdjust="spacing" textLength="260" x="156.5" y="230.1855">(delegator_id, delegator_name, reference)</text><polygon fill="#181818" points="456,288.5488,466,292.5488,456,296.5488,460,292.5488" style="stroke:#181818;stroke-width:1.0;"/><line style="stroke:#181818;stroke-width:1.0;" x1="136.5" x2="462" y1="292.5488" y2="292.5488"/><text fill="#000000" font-family="sans-serif" font-size="13" font-weight="bold" lengthAdjust="spacing" textLength="9" x="143.5" y="280.1514">2</text><text fill="#000000" font-family="sans-serif" font-size="13" lengthAdjust="spacing" textLength="119" x="156.5" y="272.4961">Send Contract with</text><text fill="#000000" font-family="sans-serif" font-size="13" lengthAdjust="spacing" textLength="148" x="156.5" y="287.8066">ServicePublicationGrant</text><path d="M365,305.5488 L365,360.5488 L571,360.5488 L571,315.5488 L561,305.5488 L365,305.5488 " fill="#FEFFDD" style="stroke:#181818;stroke-width:0.5;"/><path d="M561,305.5488 L561,315.5488 L571,315.5488 L561,305.5488 " fill="#FEFFDD" style="stroke:#181818;stroke-width:0.5;"/><text fill="#000000" font-family="sans-serif" font-size="13" lengthAdjust="spacing" textLength="128" x="371" y="323.1172">Manual validation of</text><text fill="#000000" font-family="sans-serif" font-size="13" lengthAdjust="spacing" textLength="169" x="371" y="338.4277">external contract reference</text><text fill="#000000" font-family="sans-serif" font-size="13" lengthAdjust="spacing" textLength="185" x="371" y="353.7383">(out of scope for automation)</text><line style="stroke:#181818;stroke-width:1.0;" x1="468" x2="510" y1="403.1016" y2="403.1016"/><line style="stroke:#181818;stroke-width:1.0;" x1="510" x2="510" y1="403.1016" y2="416.1016"/><line style="stroke:#181818;stroke-width:1.0;" x1="469" x2="510" y1="416.1016" y2="416.1016"/><polygon fill="#181818" points="479,412.1016,469,416.1016,479,420.1016,475,416.1016" style="stroke:#181818;stroke-width:1.0;"/><text fill="#000000" font-family="sans-serif" font-size="13" font-weight="bold" lengthAdjust="spacing" textLength="9" x="475" y="390.7041">3</text><text fill="#000000" font-family="sans-serif" font-size="13" lengthAdjust="spacing" textLength="161" x="488" y="383.0488">Validate external contract</text><text fill="#000000" font-family="sans-serif" font-size="13" lengthAdjust="spacing" textLength="209" x="488" y="398.3594">reference and delegator authority</text><path d="M89.5,431.1016 L151.5,431.1016 L151.5,438.4121 L141.5,448.4121 L89.5,448.4121 L89.5,431.1016 " fill="#EEEEEE" style="stroke:#000000;stroke-width:1.5;"/><rect fill="none" height="241.4395" style="stroke:#000000;stroke-width:1.5;" width="495.5" x="89.5" y="431.1016"/><text fill="#000000" font-family="sans-serif" font-size="13" font-weight="bold" lengthAdjust="spacing" textLength="17" x="104.5" y="444.6699">alt</text><text fill="#000000" font-family="sans-serif" font-size="11" font-weight="bold" lengthAdjust="spacing" textLength="128" x="166.5" y="443.7363">[Validation successful]</text><line style="stroke:#181818;stroke-width:1.0;" x1="468" x2="510" y1="469.7227" y2="469.7227"/><line style="stroke:#181818;stroke-width:1.0;" x1="510" x2="510" y1="469.7227" y2="482.7227"/><line style="stroke:#181818;stroke-width:1.0;" x1="469" x2="510" y1="482.7227" y2="482.7227"/><polygon fill="#181818" points="479,478.7227,469,482.7227,479,486.7227,475,482.7227" style="stroke:#181818;stroke-width:1.0;"/><text fill="#000000" font-family="sans-serif" font-size="13" font-weight="bold" lengthAdjust="spacing" textLength="9" x="475" y="464.9805">4</text><text fill="#000000" font-family="sans-serif" font-size="13" lengthAdjust="spacing" textLength="85" x="488" y="464.9805">Sign Contract</text><polygon fill="#181818" points="147.5,508.0332,137.5,512.0332,147.5,516.0332,143.5,512.0332" style="stroke:#181818;stroke-width:1.0;"/><line style="stroke:#181818;stroke-width:1.0;" x1="141.5" x2="467" y1="512.0332" y2="512.0332"/><text fill="#000000" font-family="sans-serif" font-size="13" font-weight="bold" lengthAdjust="spacing" textLength="9" x="153.5" y="507.291">5</text><text fill="#000000" font-family="sans-serif" font-size="13" lengthAdjust="spacing" textLength="145" x="166.5" y="507.291">Return signed Contract</text><line style="stroke:#181818;stroke-width:1.0;" x1="136.5" x2="178.5" y1="556.6543" y2="556.6543"/><line style="stroke:#181818;stroke-width:1.0;" x1="178.5" x2="178.5" y1="556.6543" y2="569.6543"/><line style="stroke:#181818;stroke-width:1.0;" x1="137.5" x2="178.5" y1="569.6543" y2="569.6543"/><polygon fill="#181818" points="147.5,565.6543,137.5,569.6543,147.5,573.6543,143.5,569.6543" style="stroke:#181818;stroke-width:1.0;"/><text fill="#000000" font-family="sans-serif" font-size="13" font-weight="bold" lengthAdjust="spacing" textLength="9" x="143.5" y="544.2568">6</text><text fill="#000000" font-family="sans-serif" font-size="13" lengthAdjust="spacing" textLength="85" x="156.5" y="536.6016">Sign Contract</text><text fill="#000000" font-family="sans-serif" font-size="13" lengthAdjust="spacing" textLength="156" x="156.5" y="551.9121">(Contract becomes valid)</text><path d="M102,582.6543 L102,622.6543 L502,622.6543 L502,592.6543 L492,582.6543 L102,582.6543 " fill="#FEFFDD" style="stroke:#181818;stroke-width:0.5;"/><path d="M492,582.6543 L492,592.6543 L502,592.6543 L492,582.6543 " fill="#FEFFDD" style="stroke:#181818;stroke-width:0.5;"/><text fill="#000000" font-family="sans-serif" font-size="13" lengthAdjust="spacing" textLength="233" x="181.25" y="600.2227">Service is now published in Directory</text><text fill="#000000" font-family="sans-serif" font-size="13" lengthAdjust="spacing" textLength="224" x="181.25" y="615.5332">on behalf of Delegator organization</text><line style="stroke:#000000;stroke-width:1.0;stroke-dasharray:2.0,2.0;" x1="89.5" x2="585" y1="629.2754" y2="629.2754"/><text fill="#000000" font-family="sans-serif" font-size="11" font-weight="bold" lengthAdjust="spacing" textLength="101" x="94.5" y="639.9102">[Validation failed]</text><polygon fill="#181818" points="147.5,660.541,137.5,664.541,147.5,668.541,143.5,664.541" style="stroke:#181818;stroke-width:1.0;"/><line style="stroke:#181818;stroke-width:1.0;" x1="141.5" x2="467" y1="664.541" y2="664.541"/><text fill="#000000" font-family="sans-serif" font-size="13" font-weight="bold" lengthAdjust="spacing" textLength="9" x="153.5" y="659.7988">7</text><text fill="#000000" font-family="sans-serif" font-size="13" lengthAdjust="spacing" textLength="96" x="166.5" y="659.7988">Reject Contract</text><text fill="#888888" font-family="sans-serif" font-size="10" lengthAdjust="spacing" textLength="217" x="486" y="14.668">Figure 1: Service Publication Delegation Flow</text><!--SRC=[bLJBRjim4BppAnREnGPSe3tqaaE1scc20YrW941F1WoAMabiwQNBX-tqwxkKB5hn8qrraatkp71cgA23GNX2jzKAOH4BevKCsXBiT6ZWopwW8sbWRYaugG8yOeKEIQ5eK9Reu5xNqI5ykBs8SeS6w-xrtjYT4FwNferqSWqUVyS4DBFxcNKCDRV6EhXX7lAy1IaCTXTslv1bgQc6Z- -5ZC5IN1VeXE0L67rUV8M5irkT98qFh8YJ4TnyqtKJPYQY07uOBMYbDv82ZBvBaZMw4KYVfm__2QGoaHxmxxH35QnxxW4V72AzZfXdpY391WIxPQcdh0dmnLdOSm_iNe6DD5MxRglULhRBkbgI_jDQtAuMqcEP9h3FJXsoQ_aJjH0djF3kqwcIMvWxP0lxL0UXFd10OKbjGNgILK-oSdr1bZGkUvahNKxX-8la6gUGTquk2ZgrBnMC3v2RcFYNT4NUqEEp799D_1xPcwqqkkpwQJjtpsmxwcpNnpQ6585NTeDGSGIfZEiMOpAm-9Jryf5-TFnuJhkap0kIKRDxYQ-nJeTd8QG9FKGwWezAeVTLDAtKjqbuqZLbLw_EdTNZ4KDqJCdJU4n5j01lgTSBMkvAphL0PTVeksWc7U3L2pEzd6vw-i-HzZo-WqrgY6zOgwRZKDwThzW_hbSE68t7eVULr0RB__7l9syw6iV0uYy0]--></g></svg>