<?xml version="1.0" encoding="us-ascii" standalone="no"?><svg xmlns="http://www.w3.org/2000/svg" xmlns:xlink="http://www.w3.org/1999/xlink" contentStyleType="text/css" height="684px" preserveAspectRatio="none" style="width:725px;height:684px;background:#FFFFFF;" version="1.1" viewBox="0 0 725 684" width="725px" zoomAndPan="magnify"><defs/><g><text fill="#000000" font-family="sans-serif" font-size="14" font-weight="bold" lengthAdjust="spacing" textLength="377" x="170" y="41.3125">Service Publication with External Contract Reference</text><rect fill="#ADD8E6" height="621.832" style="stroke:none;stroke-width:0.5;" width="171" x="51" y="56.2656"/><text fill="#000000" font-family="sans-serif" font-size="13" font-weight="bold" lengthAdjust="spacing" textLength="165" x="54" y="68.834">API Provider (Delegatee)</text><rect fill="#90EE90" height="621.832" style="stroke:none;stroke-width:0.5;" width="82" x="427" y="56.2656"/><text fill="#000000" font-family="sans-serif" font-size="13" font-weight="bold" lengthAdjust="spacing" textLength="62" x="437" y="68.834">Directory</text><rect fill="none" height="183.8184" style="stroke:#000000;stroke-width:1.5;" width="495.5" x="89.5" y="442.791"/><line style="stroke:#181818;stroke-width:0.5;stroke-dasharray:5.0,5.0;" x1="136.5" x2="136.5" y1="107.0645" y2="643.6094"/><line style="stroke:#181818;stroke-width:0.5;stroke-dasharray:5.0,5.0;" x1="468" x2="468" y1="107.0645" y2="643.6094"/><rect fill="#E2E2F0" height="30.4883" rx="2.5" ry="2.5" style="stroke:#181818;stroke-width:0.5;" width="74" x="99.5" y="75.5762"/><text fill="#000000" font-family="sans-serif" font-size="14" lengthAdjust="spacing" textLength="60" x="106.5" y="96.1113">Manager</text><rect fill="#E2E2F0" height="30.4883" rx="2.5" ry="2.5" style="stroke:#181818;stroke-width:0.5;" width="74" x="99.5" y="642.6094"/><text fill="#000000" font-family="sans-serif" font-size="14" lengthAdjust="spacing" textLength="60" x="106.5" y="663.1445">Manager</text><rect fill="#E2E2F0" height="30.4883" rx="2.5" ry="2.5" style="stroke:#181818;stroke-width:0.5;" width="74" x="431" y="75.5762"/><text fill="#000000" font-family="sans-serif" font-size="14" lengthAdjust="spacing" textLength="60" x="438" y="96.1113">Manager</text><rect fill="#E2E2F0" height="30.4883" rx="2.5" ry="2.5" style="stroke:#181818;stroke-width:0.5;" width="74" x="431" y="642.6094"/><text fill="#000000" font-family="sans-serif" font-size="14" lengthAdjust="spacing" textLength="60" x="438" y="663.1445">Manager</text><path d="M42,122.0645 L42,177.0645 L231,177.0645 L231,132.0645 L221,122.0645 L42,122.0645 " fill="#FEFFDD" style="stroke:#181818;stroke-width:0.5;"/><path d="M221,122.0645 L221,132.0645 L231,132.0645 L221,122.0645 " fill="#FEFFDD" style="stroke:#181818;stroke-width:0.5;"/><text fill="#000000" font-family="sans-serif" font-size="13" lengthAdjust="spacing" textLength="168" x="48" y="139.6328">API Provider acts on behalf</text><text fill="#000000" font-family="sans-serif" font-size="13" lengthAdjust="spacing" textLength="161" x="48" y="154.9434">of Delegator organization</text><text fill="#000000" font-family="sans-serif" font-size="13" lengthAdjust="spacing" textLength="168" x="48" y="170.2539">based on external contract</text><line style="stroke:#181818;stroke-width:1.0;" x1="136.5" x2="178.5" y1="234.9277" y2="234.9277"/><line style="stroke:#181818;stroke-width:1.0;" x1="178.5" x2="178.5" y1="234.9277" y2="247.9277"/><line style="stroke:#181818;stroke-width:1.0;" x1="137.5" x2="178.5" y1="247.9277" y2="247.9277"/><polygon fill="#181818" points="147.5,243.9277,137.5,247.9277,147.5,251.9277,143.5,247.9277" style="stroke:#181818;stroke-width:1.0;"/><text fill="#000000" font-family="sans-serif" font-size="13" font-weight="bold" lengthAdjust="spacing" textLength="9" x="143.5" y="214.875">1</text><text fill="#000000" font-family="sans-serif" font-size="13" lengthAdjust="spacing" textLength="192" x="156.5" y="199.5645">Create ServicePublicationGrant</text><text fill="#000000" font-family="sans-serif" font-size="13" lengthAdjust="spacing" textLength="206" x="156.5" y="214.875">with external_contract_reference</text><text fill="#000000" font-family="sans-serif" font-size="13" lengthAdjust="spacing" textLength="260" x="156.5" y="230.1855">(delegator_id, delegator_name, reference)</text><line style="stroke:#181818;stroke-width:1.0;" x1="136.5" x2="178.5" y1="277.2383" y2="277.2383"/><line style="stroke:#181818;stroke-width:1.0;" x1="178.5" x2="178.5" y1="277.2383" y2="290.2383"/><line style="stroke:#181818;stroke-width:1.0;" x1="137.5" x2="178.5" y1="290.2383" y2="290.2383"/><polygon fill="#181818" points="147.5,286.2383,137.5,290.2383,147.5,294.2383,143.5,290.2383" style="stroke:#181818;stroke-width:1.0;"/><text fill="#000000" font-family="sans-serif" font-size="13" font-weight="bold" lengthAdjust="spacing" textLength="9" x="143.5" y="272.4961">2</text><text fill="#000000" font-family="sans-serif" font-size="13" lengthAdjust="spacing" textLength="85" x="156.5" y="272.4961">Sign Contract</text><polygon fill="#181818" points="456,330.8594,466,334.8594,456,338.8594,460,334.8594" style="stroke:#181818;stroke-width:1.0;"/><line style="stroke:#181818;stroke-width:1.0;" x1="136.5" x2="462" y1="334.8594" y2="334.8594"/><text fill="#000000" font-family="sans-serif" font-size="13" font-weight="bold" lengthAdjust="spacing" textLength="9" x="143.5" y="322.4619">3</text><text fill="#000000" font-family="sans-serif" font-size="13" lengthAdjust="spacing" textLength="119" x="156.5" y="314.8066">Send Contract with</text><text fill="#000000" font-family="sans-serif" font-size="13" lengthAdjust="spacing" textLength="148" x="156.5" y="330.1172">ServicePublicationGrant</text><path d="M324,347.8594 L324,387.8594 L611,387.8594 L611,357.8594 L601,347.8594 L324,347.8594 " fill="#FEFFDD" style="stroke:#181818;stroke-width:0.5;"/><path d="M601,347.8594 L601,357.8594 L611,357.8594 L601,347.8594 " fill="#FEFFDD" style="stroke:#181818;stroke-width:0.5;"/><text fill="#000000" font-family="sans-serif" font-size="13" lengthAdjust="spacing" textLength="253" x="330" y="365.4277">Validation of external contract reference</text><text fill="#000000" font-family="sans-serif" font-size="13" lengthAdjust="spacing" textLength="266" x="330" y="380.7383">(manually or automatically outside of FSC)</text><line style="stroke:#181818;stroke-width:1.0;" x1="468" x2="510" y1="414.791" y2="414.791"/><line style="stroke:#181818;stroke-width:1.0;" x1="510" x2="510" y1="414.791" y2="427.791"/><line style="stroke:#181818;stroke-width:1.0;" x1="469" x2="510" y1="427.791" y2="427.791"/><polygon fill="#181818" points="479,423.791,469,427.791,479,431.791,475,427.791" style="stroke:#181818;stroke-width:1.0;"/><text fill="#000000" font-family="sans-serif" font-size="13" font-weight="bold" lengthAdjust="spacing" textLength="9" x="475" y="410.0488">4</text><text fill="#000000" font-family="sans-serif" font-size="13" lengthAdjust="spacing" textLength="223" x="488" y="410.0488">Validate external contract reference</text><path d="M89.5,442.791 L151.5,442.791 L151.5,450.1016 L141.5,460.1016 L89.5,460.1016 L89.5,442.791 " fill="#EEEEEE" style="stroke:#000000;stroke-width:1.5;"/><rect fill="none" height="183.8184" style="stroke:#000000;stroke-width:1.5;" width="495.5" x="89.5" y="442.791"/><text fill="#000000" font-family="sans-serif" font-size="13" font-weight="bold" lengthAdjust="spacing" textLength="17" x="104.5" y="456.3594">alt</text><text fill="#000000" font-family="sans-serif" font-size="11" font-weight="bold" lengthAdjust="spacing" textLength="128" x="166.5" y="455.4258">[Validation successful]</text><line style="stroke:#181818;stroke-width:1.0;" x1="468" x2="510" y1="481.4121" y2="481.4121"/><line style="stroke:#181818;stroke-width:1.0;" x1="510" x2="510" y1="481.4121" y2="494.4121"/><line style="stroke:#181818;stroke-width:1.0;" x1="469" x2="510" y1="494.4121" y2="494.4121"/><polygon fill="#181818" points="479,490.4121,469,494.4121,479,498.4121,475,494.4121" style="stroke:#181818;stroke-width:1.0;"/><text fill="#000000" font-family="sans-serif" font-size="13" font-weight="bold" lengthAdjust="spacing" textLength="9" x="475" y="476.6699">5</text><text fill="#000000" font-family="sans-serif" font-size="13" lengthAdjust="spacing" textLength="85" x="488" y="476.6699">Sign Contract</text><polygon fill="#181818" points="147.5,519.7227,137.5,523.7227,147.5,527.7227,143.5,523.7227" style="stroke:#181818;stroke-width:1.0;"/><line style="stroke:#181818;stroke-width:1.0;" x1="141.5" x2="467" y1="523.7227" y2="523.7227"/><text fill="#000000" font-family="sans-serif" font-size="13" font-weight="bold" lengthAdjust="spacing" textLength="9" x="153.5" y="518.9805">6</text><text fill="#000000" font-family="sans-serif" font-size="13" lengthAdjust="spacing" textLength="138" x="166.5" y="518.9805">Send accept signature</text><path d="M102,536.7227 L102,576.7227 L502,576.7227 L502,546.7227 L492,536.7227 L102,536.7227 " fill="#FEFFDD" style="stroke:#181818;stroke-width:0.5;"/><path d="M492,536.7227 L492,546.7227 L502,546.7227 L492,536.7227 " fill="#FEFFDD" style="stroke:#181818;stroke-width:0.5;"/><text fill="#000000" font-family="sans-serif" font-size="13" lengthAdjust="spacing" textLength="233" x="181.25" y="554.291">Service is now published in Directory</text><text fill="#000000" font-family="sans-serif" font-size="13" lengthAdjust="spacing" textLength="224" x="181.25" y="569.6016">on behalf of Delegator organization</text><line style="stroke:#000000;stroke-width:1.0;stroke-dasharray:2.0,2.0;" x1="89.5" x2="585" y1="583.3438" y2="583.3438"/><text fill="#000000" font-family="sans-serif" font-size="11" font-weight="bold" lengthAdjust="spacing" textLength="101" x="94.5" y="593.9785">[Validation failed]</text><polygon fill="#181818" points="147.5,614.6094,137.5,618.6094,147.5,622.6094,143.5,618.6094" style="stroke:#181818;stroke-width:1.0;"/><line style="stroke:#181818;stroke-width:1.0;" x1="141.5" x2="467" y1="618.6094" y2="618.6094"/><text fill="#000000" font-family="sans-serif" font-size="13" font-weight="bold" lengthAdjust="spacing" textLength="9" x="153.5" y="613.8672">7</text><text fill="#000000" font-family="sans-serif" font-size="13" lengthAdjust="spacing" textLength="96" x="166.5" y="613.8672">Reject Contract</text><text fill="#888888" font-family="sans-serif" font-size="10" lengthAdjust="spacing" textLength="217" x="500" y="14.668">Figure 1: Service Publication Delegation Flow</text><!--SRC=[ZLJ1Rjf04BtlLup81IGYfOTUSgXKI8agjH8AKaz8Q5WFzgRBBDrT0-dNTzPWunX8ySdsphptvhsneucMO4P-QpJ1j5nQep4Qnx0piO1l-qYUqSBOSVIe8xpGYZon9bKGPkHXOlBI4tnwl8ZoH9Rom-t4kfrIuRVX3NfSGw0_PG8QkVt8UO4QE-iyt0aF1oaXZgtgfTjFCSiCv_3vGM4P7PVh9Ncbv0HwNwVVOUhTrYH9_IChqQ07TpzCNiIHBKc1N88MZJORv0YzdyYOa-y1XgRx-4uHPudqYFzaFEde_5iD-Eo9-6F4fkSCabqaS5kHscLDWEzc4Sy3Y7jBAj2kgdEtgcqLkvpFaStVokBgT8c1ijH1TNRwc5t5dwYLwj32_PUkaaSOUn8BwrHReJvBG77ErOBK98kQPE7h1PbpFwjbBamsXDCJuvg6q5GERXCqCpatYtYnfUjusacPkLdU97dELoPgnt8MNNBs5rgJ7NPP8ZYpzpHFLTrV8vTexPj416bVrzAg3o_A64HvGfdCneDMBbtUoqCTXT176a0fjB6jEPHQKmYhqbRwRgDwx_crllEeqaWeV9i8GI0moZz2LVrNTtzusVLqrNyM4wHz1vkKN2XapGsVcfhgvclvpvVIs4usKDkf5HfBsUtJlj2h59ri4c3r3m00]--></g></svg>