<?xml version="1.0" encoding="us-ascii" standalone="no"?><svg xmlns="http://www.w3.org/2000/svg" xmlns:xlink="http://www.w3.org/1999/xlink" contentStyleType="text/css" height="730px" preserveAspectRatio="none" style="width:730px;height:730px;background:#FFFFFF;" version="1.1" viewBox="0 0 730 730" width="730px" zoomAndPan="magnify"><defs/><g><text fill="#000000" font-family="sans-serif" font-size="14" font-weight="bold" lengthAdjust="spacing" textLength="377" x="172.5" y="41.3125">Service Connection with External Contract Reference</text><rect fill="#ADD8E6" height="667.7637" style="stroke:none;stroke-width:0.5;" width="183" x="51" y="56.2656"/><text fill="#000000" font-family="sans-serif" font-size="13" font-weight="bold" lengthAdjust="spacing" textLength="177" x="54" y="68.834">API Consumer (Delegatee)</text><rect fill="#90EE90" height="667.7637" style="stroke:none;stroke-width:0.5;" width="89" x="439" y="56.2656"/><text fill="#000000" font-family="sans-serif" font-size="13" font-weight="bold" lengthAdjust="spacing" textLength="83" x="442" y="68.834">API Provider</text><rect fill="none" height="241.4395" style="stroke:#000000;stroke-width:1.5;" width="505" x="95.5" y="431.1016"/><line style="stroke:#181818;stroke-width:0.5;stroke-dasharray:5.0,5.0;" x1="142.5" x2="142.5" y1="107.0645" y2="689.541"/><line style="stroke:#181818;stroke-width:0.5;stroke-dasharray:5.0,5.0;" x1="483.5" x2="483.5" y1="107.0645" y2="689.541"/><rect fill="#E2E2F0" height="30.4883" rx="2.5" ry="2.5" style="stroke:#181818;stroke-width:0.5;" width="74" x="105.5" y="75.5762"/><text fill="#000000" font-family="sans-serif" font-size="14" lengthAdjust="spacing" textLength="60" x="112.5" y="96.1113">Manager</text><rect fill="#E2E2F0" height="30.4883" rx="2.5" ry="2.5" style="stroke:#181818;stroke-width:0.5;" width="74" x="105.5" y="688.541"/><text fill="#000000" font-family="sans-serif" font-size="14" lengthAdjust="spacing" textLength="60" x="112.5" y="709.0762">Manager</text><rect fill="#E2E2F0" height="30.4883" rx="2.5" ry="2.5" style="stroke:#181818;stroke-width:0.5;" width="74" x="446.5" y="75.5762"/><text fill="#000000" font-family="sans-serif" font-size="14" lengthAdjust="spacing" textLength="60" x="453.5" y="96.1113">Manager</text><rect fill="#E2E2F0" height="30.4883" rx="2.5" ry="2.5" style="stroke:#181818;stroke-width:0.5;" width="74" x="446.5" y="688.541"/><text fill="#000000" font-family="sans-serif" font-size="14" lengthAdjust="spacing" textLength="60" x="453.5" y="709.0762">Manager</text><path d="M41,122.0645 L41,177.0645 L243,177.0645 L243,132.0645 L233,122.0645 L41,122.0645 " fill="#FEFFDD" style="stroke:#181818;stroke-width:0.5;"/><path d="M233,122.0645 L233,132.0645 L243,132.0645 L233,122.0645 " fill="#FEFFDD" style="stroke:#181818;stroke-width:0.5;"/><text fill="#000000" font-family="sans-serif" font-size="13" lengthAdjust="spacing" textLength="181" x="47" y="139.6328">API Consumer acts on behalf</text><text fill="#000000" font-family="sans-serif" font-size="13" lengthAdjust="spacing" textLength="161" x="47" y="154.9434">of Delegator organization</text><text fill="#000000" font-family="sans-serif" font-size="13" lengthAdjust="spacing" textLength="168" x="47" y="170.2539">based on external contract</text><line style="stroke:#181818;stroke-width:1.0;" x1="142.5" x2="184.5" y1="234.9277" y2="234.9277"/><line style="stroke:#181818;stroke-width:1.0;" x1="184.5" x2="184.5" y1="234.9277" y2="247.9277"/><line style="stroke:#181818;stroke-width:1.0;" x1="143.5" x2="184.5" y1="247.9277" y2="247.9277"/><polygon fill="#181818" points="153.5,243.9277,143.5,247.9277,153.5,251.9277,149.5,247.9277" style="stroke:#181818;stroke-width:1.0;"/><text fill="#000000" font-family="sans-serif" font-size="13" font-weight="bold" lengthAdjust="spacing" textLength="9" x="149.5" y="214.875">1</text><text fill="#000000" font-family="sans-serif" font-size="13" lengthAdjust="spacing" textLength="194" x="162.5" y="199.5645">Create ServiceConnectionGrant</text><text fill="#000000" font-family="sans-serif" font-size="13" lengthAdjust="spacing" textLength="206" x="162.5" y="214.875">with external_contract_reference</text><text fill="#000000" font-family="sans-serif" font-size="13" lengthAdjust="spacing" textLength="260" x="162.5" y="230.1855">(delegator_id, delegator_name, reference)</text><polygon fill="#181818" points="471.5,288.5488,481.5,292.5488,471.5,296.5488,475.5,292.5488" style="stroke:#181818;stroke-width:1.0;"/><line style="stroke:#181818;stroke-width:1.0;" x1="142.5" x2="477.5" y1="292.5488" y2="292.5488"/><text fill="#000000" font-family="sans-serif" font-size="13" font-weight="bold" lengthAdjust="spacing" textLength="9" x="149.5" y="280.1514">2</text><text fill="#000000" font-family="sans-serif" font-size="13" lengthAdjust="spacing" textLength="119" x="162.5" y="272.4961">Send Contract with</text><text fill="#000000" font-family="sans-serif" font-size="13" lengthAdjust="spacing" textLength="150" x="162.5" y="287.8066">ServiceConnectionGrant</text><path d="M380,305.5488 L380,360.5488 L586,360.5488 L586,315.5488 L576,305.5488 L380,305.5488 " fill="#FEFFDD" style="stroke:#181818;stroke-width:0.5;"/><path d="M576,305.5488 L576,315.5488 L586,315.5488 L576,305.5488 " fill="#FEFFDD" style="stroke:#181818;stroke-width:0.5;"/><text fill="#000000" font-family="sans-serif" font-size="13" lengthAdjust="spacing" textLength="128" x="386" y="323.1172">Manual validation of</text><text fill="#000000" font-family="sans-serif" font-size="13" lengthAdjust="spacing" textLength="169" x="386" y="338.4277">external contract reference</text><text fill="#000000" font-family="sans-serif" font-size="13" lengthAdjust="spacing" textLength="185" x="386" y="353.7383">(out of scope for automation)</text><line style="stroke:#181818;stroke-width:1.0;" x1="483.5" x2="525.5" y1="403.1016" y2="403.1016"/><line style="stroke:#181818;stroke-width:1.0;" x1="525.5" x2="525.5" y1="403.1016" y2="416.1016"/><line style="stroke:#181818;stroke-width:1.0;" x1="484.5" x2="525.5" y1="416.1016" y2="416.1016"/><polygon fill="#181818" points="494.5,412.1016,484.5,416.1016,494.5,420.1016,490.5,416.1016" style="stroke:#181818;stroke-width:1.0;"/><text fill="#000000" font-family="sans-serif" font-size="13" font-weight="bold" lengthAdjust="spacing" textLength="9" x="490.5" y="390.7041">3</text><text fill="#000000" font-family="sans-serif" font-size="13" lengthAdjust="spacing" textLength="161" x="503.5" y="383.0488">Validate external contract</text><text fill="#000000" font-family="sans-serif" font-size="13" lengthAdjust="spacing" textLength="209" x="503.5" y="398.3594">reference and delegator authority</text><path d="M95.5,431.1016 L157.5,431.1016 L157.5,438.4121 L147.5,448.4121 L95.5,448.4121 L95.5,431.1016 " fill="#EEEEEE" style="stroke:#000000;stroke-width:1.5;"/><rect fill="none" height="241.4395" style="stroke:#000000;stroke-width:1.5;" width="505" x="95.5" y="431.1016"/><text fill="#000000" font-family="sans-serif" font-size="13" font-weight="bold" lengthAdjust="spacing" textLength="17" x="110.5" y="444.6699">alt</text><text fill="#000000" font-family="sans-serif" font-size="11" font-weight="bold" lengthAdjust="spacing" textLength="128" x="172.5" y="443.7363">[Validation successful]</text><line style="stroke:#181818;stroke-width:1.0;" x1="483.5" x2="525.5" y1="469.7227" y2="469.7227"/><line style="stroke:#181818;stroke-width:1.0;" x1="525.5" x2="525.5" y1="469.7227" y2="482.7227"/><line style="stroke:#181818;stroke-width:1.0;" x1="484.5" x2="525.5" y1="482.7227" y2="482.7227"/><polygon fill="#181818" points="494.5,478.7227,484.5,482.7227,494.5,486.7227,490.5,482.7227" style="stroke:#181818;stroke-width:1.0;"/><text fill="#000000" font-family="sans-serif" font-size="13" font-weight="bold" lengthAdjust="spacing" textLength="9" x="490.5" y="464.9805">4</text><text fill="#000000" font-family="sans-serif" font-size="13" lengthAdjust="spacing" textLength="85" x="503.5" y="464.9805">Sign Contract</text><polygon fill="#181818" points="153.5,508.0332,143.5,512.0332,153.5,516.0332,149.5,512.0332" style="stroke:#181818;stroke-width:1.0;"/><line style="stroke:#181818;stroke-width:1.0;" x1="147.5" x2="482.5" y1="512.0332" y2="512.0332"/><text fill="#000000" font-family="sans-serif" font-size="13" font-weight="bold" lengthAdjust="spacing" textLength="9" x="159.5" y="507.291">5</text><text fill="#000000" font-family="sans-serif" font-size="13" lengthAdjust="spacing" textLength="145" x="172.5" y="507.291">Return signed Contract</text><line style="stroke:#181818;stroke-width:1.0;" x1="142.5" x2="184.5" y1="556.6543" y2="556.6543"/><line style="stroke:#181818;stroke-width:1.0;" x1="184.5" x2="184.5" y1="556.6543" y2="569.6543"/><line style="stroke:#181818;stroke-width:1.0;" x1="143.5" x2="184.5" y1="569.6543" y2="569.6543"/><polygon fill="#181818" points="153.5,565.6543,143.5,569.6543,153.5,573.6543,149.5,569.6543" style="stroke:#181818;stroke-width:1.0;"/><text fill="#000000" font-family="sans-serif" font-size="13" font-weight="bold" lengthAdjust="spacing" textLength="9" x="149.5" y="544.2568">6</text><text fill="#000000" font-family="sans-serif" font-size="13" lengthAdjust="spacing" textLength="85" x="162.5" y="536.6016">Sign Contract</text><text fill="#000000" font-family="sans-serif" font-size="13" lengthAdjust="spacing" textLength="156" x="162.5" y="551.9121">(Contract becomes valid)</text><path d="M108,582.6543 L108,622.6543 L518,622.6543 L518,592.6543 L508,582.6543 L108,582.6543 " fill="#FEFFDD" style="stroke:#181818;stroke-width:0.5;"/><path d="M508,582.6543 L508,592.6543 L518,592.6543 L508,582.6543 " fill="#FEFFDD" style="stroke:#181818;stroke-width:0.5;"/><text fill="#000000" font-family="sans-serif" font-size="13" lengthAdjust="spacing" textLength="214" x="196.5" y="600.2227">Consumer can now access service</text><text fill="#000000" font-family="sans-serif" font-size="13" lengthAdjust="spacing" textLength="224" x="196.5" y="615.5332">on behalf of Delegator organization</text><line style="stroke:#000000;stroke-width:1.0;stroke-dasharray:2.0,2.0;" x1="95.5" x2="600.5" y1="629.2754" y2="629.2754"/><text fill="#000000" font-family="sans-serif" font-size="11" font-weight="bold" lengthAdjust="spacing" textLength="101" x="100.5" y="639.9102">[Validation failed]</text><polygon fill="#181818" points="153.5,660.541,143.5,664.541,153.5,668.541,149.5,664.541" style="stroke:#181818;stroke-width:1.0;"/><line style="stroke:#181818;stroke-width:1.0;" x1="147.5" x2="482.5" y1="664.541" y2="664.541"/><text fill="#000000" font-family="sans-serif" font-size="13" font-weight="bold" lengthAdjust="spacing" textLength="9" x="159.5" y="659.7988">7</text><text fill="#000000" font-family="sans-serif" font-size="13" lengthAdjust="spacing" textLength="96" x="172.5" y="659.7988">Reject Contract</text><text fill="#888888" font-family="sans-serif" font-size="10" lengthAdjust="spacing" textLength="218" x="504" y="14.668">Figure 2: Service Connection Delegation Flow</text><!--SRC=[bLHDQnin5BphLpoSYmqkb48lEHHgjmc55am2FHcCh7sxLgjzSlLXk_trVT9wFx9sqdHFkvRUp6XcvA23GNX4Tz0AOMc9K0Lj2OuwxE3pAQ0ZQT92S585UC0I7P92iKDPe8CxNKM7yExs6iWdD5Z9_7fdx548_rFJNZfPWyTVCU4ix6bX7ICjhR4ERfY6F6z12eFTMtjQoQBGLC7xjqB6O2dMMtH2y0fCFgw-95eVQrOqFRCYpYPmyrLNkx0m4GNmmsX1AxsN563oJPAiq4r0-cxw_9j0AXBf07_bx44NQNk3UUyGwMNGTkG2b6n0i0SME-PDU4zEmwPxOF-sk9EcpEksR8rbmwoh9Ea_sUIykfKUYpI1RNZg75xcJzH2Z6ZXpOUnabjOEcGJsrZxLEyveR2cN92MOzDoR5nRa3LDYrRbHXTpwBz8rZY7RkVigfwHUQbVBByhOg9VqtLnGuF76IIB-3soBmTfTD6qqpRENbZMYyphKnj3ijyhkqSesVvKnJfZp0RsZaYl7kTxmuwNf6lgM44oPcTSOjjPfyDl8QG9BKGwW8zAeVTbD5deQmGyweewFv-RkcZ50uRec8-7iOz3vFdNjEe9AtUa2tIBojRecrHc3U2pzsH-DTUX1b2IUFx85oWPm_ytkIdTlkvA_UCwTQ6YyJXql9JQOF4VlltWXlQ6CQxu2m00]--></g></svg>